# xmcd CD database file
#
# Track frame offsets:
#	150
#	13926
#	30945
#	55937
#
# Disc length: 1182 seconds
#
# Revision: 0
# Processed by: cddbd v1.5PL3 Copyright (c) Steve Scherf et al.
# Submitted via: CDex 1.50
#
DISCID=27049c04
DTITLE=hell is for heroes - You Drove Me To It
DYEAR=2003
DGENRE=Rock
TTITLE0=You Drove Me To It
TTITLE1=Inside
TTITLE2=Gravity
TTITLE3=You Drove Me To It (enhanced video)
EXTD=YEAR: 2003
EXTT0=
EXTT1=
EXTT2=
EXTT3=
PLAYORDER=
